<?xml version="1.0" standalone="no"?>
<!DOCTYPE svg PUBLIC "-//W3C//DTD SVG 20010904//EN"
 "http://www.w3.org/TR/2001/REC-SVG-20010904/DTD/svg10.dtd">
<svg version="1.0" xmlns="http://www.w3.org/2000/svg"
 width="420.000000pt" height="420.000000pt" viewBox="0 0 420.000000 420.000000"
 preserveAspectRatio="xMidYMid meet">
<metadata>
Created by potrace 1.11, written by Peter Selinger 2001-2013
</metadata>
<g transform="translate(0.000000,420.000000) scale(0.100000,-0.100000)"
fill="#000000" stroke="none">
<path d="M3665 4191 c-11 -5 -51 -11 -90 -15 -38 -4 -86 -9 -105 -11 -19 -2
-57 -7 -85 -10 -128 -13 -402 -46 -420 -50 -11 -2 -42 -7 -70 -10 -27 -3 -63
-8 -80 -10 -16 -3 -42 -7 -57 -9 -14 -3 -62 -10 -105 -16 -70 -10 -257 -44
-388 -69 -80 -16 -312 -71 -410 -98 -112 -31 -377 -113 -390 -121 -5 -4 -14
-7 -20 -8 -29 -5 -323 -122 -455 -182 -85 -38 -442 -215 -515 -254 -172 -94
-376 -211 -410 -234 -11 -8 -27 -14 -37 -14 -12 0 -18 -8 -18 -21 0 -19 5 -20
68 -18 66 2 67 2 63 -22 -2 -13 -4 -190 -6 -394 -3 -339 -5 -377 -24 -450 -74
-279 -40 -533 127 -953 26 -66 30 -71 35 -45 6 33 1 531 -7 600 -3 27 -8 77
-11 113 -7 70 -47 288 -70 385 -22 88 -17 751 5 766 15 10 622 5 810 -7 47 -3
108 -6 135 -8 59 -3 57 27 16 -261 -17 -115 -33 -226 -36 -246 l-5 -36 78 -21
c42 -11 96 -26 119 -32 42 -10 42 -11 45 -63 2 -38 7 -52 18 -53 25 0 73 18
120 47 l45 28 145 -12 c138 -12 143 -13 120 -28 -35 -23 -100 -87 -131 -129
-128 -172 -151 -425 -53 -582 57 -92 158 -163 264 -185 40 -8 150 -4 190 7
138 37 267 140 347 275 155 263 67 593 -182 686 l-30 11 70 24 c39 14 85 31
103 39 22 10 45 12 70 8 46 -10 254 -10 304 -1 127 22 238 89 274 165 27 56
-3 139 -70 194 -18 15 -17 18 43 90 35 41 70 86 79 102 11 18 22 25 32 21 64
-28 144 -44 255 -50 86 -5 89 -4 63 11 -26 14 -39 44 -20 46 4 0 30 3 57 5 46
4 82 9 95 14 9 4 25 7 45 9 16 2 13 6 -12 17 -18 8 -33 18 -33 24 0 8 34 22
60 25 22 2 130 49 130 57 0 5 -4 6 -10 3 -5 -3 -22 1 -37 8 l-27 15 66 32 c71
35 151 96 112 85 -12 -3 -31 -2 -44 3 -22 8 -21 10 21 40 106 76 130 103 87
95 -13 -2 -29 0 -36 5 -10 7 3 25 52 72 69 66 81 85 44 71 -21 -8 -68 2 -68
14 0 3 30 35 68 71 l67 65 -51 -4 -52 -3 14 40 c8 22 25 59 38 81 l24 40 -71
0 c-39 -1 -84 1 -99 3 l-29 4 28 30 28 29 -70 -2 c-38 -1 -86 -8 -106 -15 -52
-18 -70 -4 -42 34 l21 29 -41 -9 c-57 -12 -60 -12 -75 -22 -7 -4 -16 -6 -18
-3 -3 3 34 33 81 67 78 56 96 79 69 86 -5 2 -18 -1 -29 -5z m-35 -392 c-37
-24 -245 -139 -252 -139 -4 0 -8 -4 -8 -10 0 -5 -5 -10 -10 -10 -22 0 -274
-176 -339 -236 l-34 -31 -43 26 -43 26 22 18 c33 27 52 41 73 54 151 93 217
131 315 178 170 81 376 162 319 124z"/>
<path d="M3197 2914 c-1 -1 -27 -5 -56 -8 -30 -4 -57 -8 -59 -11 -2 -2 -1 -16
2 -32 6 -25 25 -50 115 -148 46 -50 204 -196 231 -213 14 -9 40 -29 59 -45 43
-36 151 -106 213 -137 73 -36 82 -27 74 78 -9 133 -58 247 -144 339 -70 75
-182 143 -255 157 -12 2 -33 7 -47 10 -25 7 -128 14 -133 10z"/>
<path d="M3020 2463 c-200 -30 -327 -191 -328 -415 -1 -105 11 -152 62 -258
31 -66 57 -102 116 -160 75 -75 174 -138 228 -145 15 -2 27 -4 27 -5 0 -2 32
-7 77 -13 77 -10 208 32 268 86 29 26 90 102 90 112 0 4 7 21 15 38 22 48 33
108 33 184 1 259 -198 514 -443 569 -30 7 -117 11 -145 7z"/>
<path d="M3791 2182 c-35 -29 -50 -113 -46 -252 2 -69 6 -139 9 -157 16 -98
28 -157 42 -205 37 -129 95 -228 134 -228 48 0 151 172 175 291 11 50 5 166
-10 223 -34 127 -122 245 -233 314 -49 30 -52 30 -71 14z"/>
<path d="M1267 2147 c-22 -12 -64 -49 -95 -82 -96 -102 -144 -220 -144 -354 0
-82 3 -99 28 -173 22 -68 57 -127 103 -177 l40 -43 31 19 c18 10 37 27 42 38
6 11 15 23 20 26 5 3 10 12 11 20 2 8 5 19 8 24 6 10 41 111 45 130 1 6 7 33
14 60 20 89 25 137 24 275 -1 140 -10 190 -45 234 -24 31 -32 31 -82 3z"/>
<path d="M2492 1524 c-98 -20 -186 -68 -258 -140 -35 -35 -64 -70 -64 -77 0
-8 -9 -26 -20 -40 -27 -34 -48 -130 -45 -207 3 -68 34 -164 68 -215 44 -65
155 -157 207 -170 3 -1 12 -5 20 -8 130 -57 330 -41 458 36 63 37 149 127 180
185 53 101 63 234 27 337 -36 104 -128 207 -231 258 -48 25 -184 56 -235 55
-25 -1 -73 -7 -107 -14z"/>
<path d="M3678 1364 c-2 -1 -15 -5 -28 -7 -152 -25 -357 -220 -456 -433 -70
-151 -82 -306 -29 -386 55 -83 162 -96 328 -39 179 62 320 212 373 396 27 95
26 247 -3 325 -3 8 -7 21 -9 27 -6 32 -47 82 -78 97 -32 15 -91 27 -98 20z"/>
<path d="M1382 1280 c-30 -19 -60 -56 -79 -101 -19 -44 -9 -245 15 -312 74
-204 240 -353 436 -393 113 -23 177 -6 229 58 55 68 46 220 -20 358 -82 170
-235 328 -373 385 -63 26 -169 28 -208 5z"/>
<path d="M2567 484 c-1 -1 -31 -5 -67 -8 -208 -18 -368 -87 -385 -168 -15 -67
138 -201 289 -254 123 -44 298 -34 416 24 99 48 211 147 237 209 13 31 12 37
-7 68 -27 43 -133 93 -235 110 -67 11 -242 24 -248 19z"/>
</g>
</svg>
