<svg version="1" xmlns="http://www.w3.org/2000/svg" width="413.333" height="413.333" viewBox="0 0 310.000000 310.000000"><path d="M270 .9c0 .4-1.2.6-2.7.6-1.6-.1-3.6.3-4.5.7-1.2.6-1.8.5-1.8-.2s-.5-.8-1.2-.3c-1.3.7-2.1.9-10.3 1.6-2.3.2-4.6.7-5.3 1.1-.7.4-1.2.2-1.2-.6s-.3-.9-.8-.3c-.4.5-1.6 1.1-2.7 1.1-6.5.5-11.4 1.2-12.4 1.8-.6.4-1.1.2-1.1-.4 0-.7-.6-.8-1.9-.1-1 .6-2.8.8-4 .6-1.2-.2-1.9 0-1.5.6.3.6-.5.8-2 .5-1.4-.3-2.8-.2-3 .2-.2.4-1.9.7-3.8.7-1.8-.1-3.6.4-4 1-.5.6-.8.5-.8-.4 0-1.1-.3-1.1-1.5-.1-.8.7-1.5 1-1.5.6 0-.3-1.1-.1-2.5.4-1.7.7-2.5.6-2.5-.1 0-.8-.4-.8-1.3 0-.8.6-1.7.8-2 .4-.4-.3-.7-.2-.7.4 0 .6-1.9 1-4.5.8-2.7-.1-4.2.2-3.8.8.4.6-.3.8-1.5.5-1.2-.4-2.4-.3-2.7.1-.2.4-1.8.7-3.5.6-1.6-.1-3 .2-3 .8 0 .5-.7.7-1.5.4-.8-.4-1.7-.2-2 .3-.4.6-1.1 1-1.6 1-.6 0-.7-.6-.3-1.3.5-.7 0-.6-1.1.3-1 .8-2 1.4-2.2 1.2-.1-.1-.4-.2-.5-.1-.4.1-3.4.7-6.8 1.3-1.4.2-2.5.5-2.5.7 0 .1-.9.3-2 .5-3.6.6-5 .9-6.2 1.7-.8.5-1.3.3-1.3-.5 0-1-.2-1-.9.1-.5.7-1.4 1-2 .7-.6-.4-1.1-.3-1.1.2 0 .6-1.7 1.3-3.7 1.7-2.1.4-4.4 1.2-5.2 1.8-1.2 1-1.3.9-.6-.3.8-1.3.7-1.3-.8-.1-.9.7-1.7 1-1.7.6s-.7-.2-1.5.5-1.5.9-1.5.5-.7-.2-1.5.5-1.5.9-1.5.5-.7-.2-1.5.5-1.5.9-1.5.4-.5-.2-1 .6-1 1-1 .4c0-.8-1.4-.5-3.7.7-2.1 1-4.5 1.9-5.5 1.9-.9 0-2 .5-2.3 1.1-.4.6-1.3.8-2.1.5-.8-.3-1.4-.2-1.4.2s-1 .8-2.2.9c-1.1.1-2.5.8-2.9 1.5-.5.7-.9 1-.9.5 0-.4-1.3-.1-2.9.7-1.6.9-3.1 1.2-3.5.9-.3-.4-.6-.2-.6.4 0 .6-1.4 1.3-3 1.7-4.3.8-4.3.8-6.4 2.8-1 .9-2.3 1.5-2.7 1.3-1.1-.7-5.9 1.6-5.9 2.8 0 .6-.3.7-.6.4-.4-.3-1.6-.1-2.8.5-1.1.7-2.4 1.1-2.9 1-.4-.1-.7.3-.7.9 0 .5-.5.7-1 .4-.6-.4-1.6-.2-2.3.3-2.8 2.3-28.6 14.9-29.4 14.3-.4-.3-.5-.2-.1.3.7.8-4.6 4.3-7.4 4.8-.7.2-2.3 1.3-3.7 2.5-1.4 1.2-2.8 2-3.3 1.7-.4-.3-.8 0-.8.7s-.3 1-.6.6c-.4-.3-1.3.1-2.1.9s-1.9 1.2-2.4.9c-.5-.4-.9-.2-.9.3 0 .6-2.5 2.3-5.6 3.9C3.3 82.3 1 84 1.2 84.5c.1.5 2 .9 4.1.9 2.1-.1 3.7.4 3.7 1s.5.4 1-.4c.9-1.3 1-1.3 1 0 0 .9-.5 2.1-1.1 2.7-.8.8-.7 1.3.2 1.8.8.6 1 .4.4-.5-.5-.9-.4-1.1.4-.6.8.6.9 1.1.1 2-.5.7-.9 2.4-.9 3.7.1 1.3-.2 3.2-.6 4.1-.4 1.2-.3 1.8.5 1.8 1 0 1 .3 0 1.5s-1 1.5.1 1.5c.9 0 1 .3.4.8-1.4 1-1.4 26.2 0 25.5.6-.3.5 0-.1.6-.7.8-.9 2.5-.4 4.6.4 1.8.4 3.9-.1 4.6-.4.7-.3 1.9.3 2.6.7.9.7 1.3-.1 1.3-.7 0-.9.4-.6 1 .3.5.2 1-.4 1-.5 0-.8.8-.6 1.7.1 1-.2 2.3-.7 3-.5.7-.7 1.7-.3 2.3.3.5.2 1-.4 1-.5 0-.8 1-.6 2.2.3 1.2 0 2.7-.6 3.5-.9.9-.8 1.3 0 1.3.7 0 .9.5.5 1.1-1.1 1.8-1.2 13.1-.2 15.2.6 1.1.5 1.7-.2 1.7s-.8.6-.2 1.7c.5 1 .8 2.8.7 4-.1 1.2.5 2.5 1.2 2.7 1 .4 1.1 1.1.5 2.3-.6.9-.6 2.4-.2 3.2 1.4 2.6 2.3 5.5 2.1 6.5-.1.4.4 1.5 1.1 2.4 1.1 1.3 1.1 1.4-.2.7-1.2-.7-1.3-.6-.3.7.7.8.9 1.9.5 2.3-.4.5-.1.5.6.1 1.1-.6 1.8 1.8 1.3 4.6 0 .5.4.8.9.8.6 0 1 .7 1 1.5 0 .9.7 2.7 1.6 4 .9 1.3 1.3 2.9.9 3.5-.3.5-.1 1 .5 1s.8.5.4 1.1c-.4.7-.1 1 .6.7.8-.2 1.5-2.3 1.7-4.7.2-3.2 0-4.1-.9-3.5-1 .6-1 .4-.2-.7 1.2-1.6 1.2-2.9.1-4.6-.4-.6-.3-1.4.1-1.7 1.1-.7.9-4.6-.2-6.5-.6-1-.5-1.2.2-.7.7.4 1.2.1 1.2-.8 0-.8-.5-1.8-1-2.1-.8-.5-.7-1.2.2-2.3 1-1.2 1-1.6.1-1.9-1-.4-1-1-.2-2.5.8-1.6.8-1.9-.1-1.3-.9.6-.9.2-.1-1.4.7-1.1.8-2.1.3-2.1-1 0-.6-5.5.4-7.2.4-.6.2-.8-.3-.5-.7.4-1.1-.9-1.2-3.6-.3-6.9-.4-7.2-1.5-7.9-.8-.6-.8-.8.1-.8.8 0 .9-.9.3-3.3-.5-1.7-1.1-4.6-1.3-6.2-.3-1.7-1-5.3-1.7-8-.7-2.8-1.4-6.4-1.7-8-.3-1.7-1-3.6-1.6-4.4-.9-1.2-.9-1.3.1-.7.7.4 1.2.1 1.2-.9s-.5-1.3-1.2-.9c-.8.5-.8.3-.2-.7 1.3-2 1.3-7.2 0-8.8-.8-1.1-.8-1.3 0-.8 1.4.8 1.4-7.5-.1-8.5-.7-.5-.7-.8 0-.8.6 0 1.1-.9 1.2-2 .1-1.3-.2-1.8-.9-1.4-.7.5-.8.2-.2-.7.4-.8 1-6.3 1.1-12.4.2-6.4.8-11.4 1.5-12 .8-.7.9-.6.3.5-.8 1.3-.6 1.3.8.1.9-.7 2.6-1.1 3.7-.8 1.1.3 2 .2 2-.1 0-1.1 7.4-.8 8.2.3.5.6.8.5.8-.4 0-1.1.3-1.1 1.5-.1.8.7 1.5.8 1.5.4 0-1.1 8.2-1 9.8 0 .7.4 1.2.2 1.2-.4 0-.7.6-.8 1.8-.1 2.2 1.2 3.4 1.2 4.9 0 .6-.6 1.4-.6 1.7-.1.3.5 4.2.8 8.6.7 4.4-.1 8 .1 8 .5 0 .9 3.2.6 4.8-.4.6-.4 1.2-.3 1.2.1 0 .5.9.9 2 1 1.3.1 1.8-.2 1.4-.9-.5-.7-.2-.8.6-.3.7.4 2.6.9 4.2 1 1.6.2 3.2.5 3.5.9.9.9 1 5.6.1 5.6-.4 0-.5 1-.3 2.1.3 1.2.1 2.7-.2 3.3-.8 1.3-1.2 3.7-1.5 9.3-.1 2.4-.5 4.3-.9 4.3-.3 0-.5 1.3-.4 3 .1 1.6-.3 3-.9 3-.6 0-.4.5.4 1s1 1 .5 1c-.6 0-1 1.2-.9 2.7.1 1.6-.3 3.3-.8 4-.7.8-.3 1 1.1.6 1.3-.3 2.1-.1 2.1.7 0 1 .3 1 1.5 0 1-.9 1.5-.9 1.5-.1 0 .6 1.4 1.1 3.1 1.1 1.6 0 2.8.4 2.4.9-.3.6.4.8 1.5.6 2.6-.5 5 2 4.5 4.6-.2 1.2.2 2.8 1 3.6.9.9 1.5 1 1.5.3 0-.6.4-.9.9-.6.5.3 2.2-.1 3.7-.9 1.6-.8 3.5-1.5 4.2-1.5.8 0 1-.5.6-1.2-.5-.7-.2-.9.9-.5.9.3 1.8.1 2.1-.6.3-.8.7-.9 1.3-.2.4.5 2.8 1 5.3.9 2.5 0 5.3.3 6.3.8 1.1.6 1.7.5 1.7-.3s.4-.9 1.3 0c1 .8 1.7.7 2.5-.1.7-.7 1.2-.9 1.2-.6 0 1.1-6.9 7.8-8 7.8-.5 0-1 .7-1 1.5s-.4 1.5-.9 1.5-1.1.9-1.4 2.1c-.3 1.2-1 1.8-1.7 1.4-.6-.3-.9-.3-.8.2.1.4-.6 2.8-1.6 5.3-1.1 2.5-1.9 4.8-1.8 5.2.1.5-.2.8-.6.8-.9 0-1 1-1.2 10-.2 7.5.2 10.3 2 14.5.7 1.6 1.3 3.3 1.2 3.7-.1.5.3.8 1 .8.6 0 .9.3.5.6-.3.4 1.2 2.3 3.3 4.3 5.9 5.4 6.7 6 7.4 5.4.3-.4.6-.1.6.6s.5.9 1 .6c.5-.3 1-.1 1 .5 0 .7.8.9 2.1.5 1.4-.5 1.9-.3 1.5.3-.4.6.1 1.1 1.1 1.1 1-.1 3.8 0 6.3.1 5.8.1 9-.4 11.8-1.9 1.2-.6 2.2-.9 2.2-.5 0 .3.7.1 1.5-.6s1.5-.9 1.5-.4.5.1 1.1-.9c.6-.9 1.4-1.5 2-1.2.5.4.9-.1.9-1s.5-1.3 1-1c.6.3 1.3-.1 1.6-.9.3-.9.9-1.4 1.3-1.2.4.3 1.7-1.1 3-3s2.7-3.4 3.2-3.4.9-.7.9-1.6c0-.9.5-1.2 1.2-.8.8.5.9.2.5-.9s-.1-1.7.9-1.7c.8 0 1.3-.4.9-.9-.3-.5 0-1.3.6-1.6.5-.4.8-1.2.6-1.9-.3-.6.1-2 .9-3 .7-1.1 1.1-2.3.8-2.7-.3-.5-.1-.9.4-.9s.8-1 .7-2.3c-.1-1.2 0-2.6.3-3.2 1-1.6.9-4.5 0-4.5-.5 0-.4-.8.1-1.9.6-1 .8-2.1.5-2.3-.3-.3-.7-1.8-1-3.4-.3-1.6-1-3.4-1.6-4.1-.6-.7-.8-2-.4-2.8.3-.8.1-1.5-.5-1.5-.5 0-1.4-1.1-1.9-2.5s-1.6-2.8-2.5-3.1c-.8-.3-1.2-1-.9-1.5.3-.5-.2-.9-1-.9-.9 0-1.6-.5-1.6-1.1 0-.5-.4-.7-1-.4-.5.3-1-.1-1-.9 0-1.4-1.8-2.1-4.2-1.7-.5 0-.8-.4-.8-1 0-.5-.4-.8-.9-.5-.5.4-.7-.3-.4-1.4.4-1.6.8-1.8 1.9-.9 1.1.9 1.4.8 1.4-.1 0-.7.7-1 1.5-.6.8.3 1.5.1 1.5-.4 0-.6.9-1 2-1s2-.5 2-1c0-.6 1.9-1 4.5-.8 2.5.2 4.5.7 4.5 1.1 0 .5.6.5 1.3 0 1.7-1.1 3.7-1.3 3.7-.3 0 .9 6.7.6 13.1-.6 2.4-.4 4.7-.7 5.2-.6.4.1.7-.2.7-.7 0-.5.8-.8 1.7-.7 1 .2 2.4-.3 3.1-1.1.8-.7 1.7-1.1 2.2-.8.5.3 1.6-.5 2.5-1.7.8-1.3 1.8-2.1 2.1-1.8.3.3 1.6-1.3 2.8-3.5 2-3.6 2.3-5.1 1.6-7.3-.1-.4-.2-1-.1-1.5 0-.4-.4-.7-.9-.7-.6 0-1-.8-.8-1.7.2-1-.3-1.8-1.2-1.8-.8-.1-1.4-.6-1.3-1.3.2-.7-.2-1.2-.7-1.2-1.6 0-1.2-2.8.8-4.9 4.5-4.9 6-6.8 7.1-8.9 1.1-2.1 4.1-3.1 4.1-1.3 0 .5.8.8 1.8.6.9-.1 2.2.1 2.7.5.6.4 1.7.8 2.5.8 2.5.2 10.4 1.2 12.3 1.7 1.5.3 1.8-.1 1.3-1.9-.4-1.8 0-2.6 2-3.5 1.9-.8 2.4-.8 1.8.1-.5.8-.2.9 1.2.3 1-.4 3.1-.8 4.7-.9 1.5 0 2.7-.5 2.7-.9 0-.5.4-.6.9-.2.5.3 1.3 0 1.7-.6.4-.8.3-.9-.4-.5s-1.2.2-1.2-.4c0-.6-.4-.8-1-.5-.5.3-1 .1-1-.5 0-1.2 4.1-3 5.3-2.3.4.2.7-.1.7-.7s.4-.9.9-.5c.5.3 1.2.1 1.6-.4.3-.6 1.2-.8 2.1-.4 1.9.7 1.5-1.7-.6-3.4-1.3-1.1-1.3-1.2.3-1.3.9 0 1.7-.5 1.7-1 0-.6.5-1 1.1-1 .6 0 2.3-.9 3.9-2 1.5-1.1 3-1.7 3.2-1.4.3.3.9-.3 1.2-1.3.4-.9.4-1.4 0-1-.4.4-1.3-.1-2-1.1-1.1-1.5-.8-2 2.2-3.8 2-1.2 3.5-2.6 3.5-3 0-.5.6-.8 1.4-.6.7.1 1.6-.2 2-.8.4-.6.3-1-.2-.9-.4.1-1.1 0-1.5-.1-.5-.1-1.2-.3-1.8-.4-.5 0-1-.4-1-.9v-1.5c0-.5 1.7-2.1 3.7-3.5 2.1-1.5 3.4-2.7 2.9-2.7s-.3-.7.4-1.5c1.1-1.4 1-1.4-1.1-.7-3.5 1.3-5.5.4-3.2-1.5 1-.8 1.2-1.1.4-.7-.9.5-1.2.3-.7-.4.4-.7 1.5-1.2 2.4-1.2 1.3 0 1.4-.2.4-.9-1-.6-.7-1 1.2-1.5 1.5-.4 2.4-1.1 2.1-1.6-.4-.6.1-1.3 1-1.6 1.3-.5 1.4-.9.4-1.5-.8-.5-1.7-.3-2.1.4-.6.9-.8.9-.8 0 0-.7-.7-1-1.5-.6-1.5.5-1.8-1.4-.5-2.7.3-.3 1.1-1.6 1.8-2.9 1.1-1.9 1.1-2.2 0-1.6-.7.3-.6.1.3-.7 1.1-.9 1.4-1.9.8-3.3-.4-1.1-.8-1.6-.8-1-.1.5-1.9 1.1-4.1 1.2-2.2 0-3.8-.3-3.5-.7.3-.4-.4-.6-1.5-.3-2.5.7-2.6-1.2-.2-2.6 1.4-.9 1.3-1-1.1-1.1-2 0-2.6-.4-2.1-1.3.6-.8.3-.8-.9.1-.9.8-2.1 1.1-2.6.8-.5-.4-1.2-.2-1.6.4-.4.6-1 .8-1.5.5-.5-.3-1.8-.1-2.9.5-2.4 1.2-3.8-.4-2.1-2.5 1.4-1.7-.5-3.1-2.3-1.8-.7.5-2.3 1-3.6 1.1-2.2.1-2.1-.1 1.2-2.5 2-1.4 3.7-3 3.7-3.5s.5-.6 1-.3c.6.3 1.3-.1 1.6-.9.3-.9 1.1-1.3 1.6-1 .6.4.9.1.6-.6C273.4.6 270-.3 270 .9zm-2 28.6c0 .1-1.3 1.1-3 2.3-2.5 1.9-2.8 2-2.3.5.4-1.1-.4-.8-2 1-1.5 1.5-3.2 2.5-3.7 2.2-.6-.3-1-.1-1 .4 0 .6-.7 1.1-1.5 1.1s-1.5.5-1.5 1.1c0 .5-.4.7-1 .4-.5-.3-1-.1-1 .5s-.4.9-.9.6c-.5-.3-1.2.1-1.5 1-.3.8-1 1.3-1.4 1-.5-.3-1.6.4-2.5 1.5-.9 1-2.4 1.9-3.2 1.9-.8 0-1.5.4-1.5 1 0 .5-.6 1-1.4 1-.8 0-1.7.7-2 1.6-.3.8-1 1.3-1.5.9-.6-.3-1.5.4-2.1 1.5-.6 1.1-1.5 1.8-2.1 1.5-.5-.4-.9-.1-.9.4 0 .6-.5 1.1-1.1 1.1-.6 0-2.4 1.4-4 3.1-1.6 1.7-2.9 2.7-2.9 2.3 0-.5-.4-.3-.9.5-.7 1.1-1.4.9-3.9-.9l-3.1-2.3 3.2-2.3c1.8-1.3 4-2.7 5-3 .9-.4 1.7-1.1 1.7-1.6s.5-.6 1-.3c.6.3 1 .1 1-.5s.5-.8 1-.5c.6.3 1-.1 1-1s.5-1.3 1.1-1c.6.4 1.7-.1 2.4-1.1.8-1.1 1.5-1.5 1.5-1.1 0 .5 1.4-.2 3.2-1.4 1.7-1.3 2.8-1.6 2.3-.8-.5.7.6.2 2.4-1.4 1.8-1.5 3.6-2.5 4.1-2.2.4.3 1.3-.2 2-1s1.6-1.2 2.1-.9c.5.3.9 0 .9-.7s.3-.9.6-.6c.4.3 1.6.1 2.8-.5 1.1-.7 2.4-1.1 2.9-1 .4.1.7-.3.7-1 0-.6.3-.8.6-.5.4.3 1.6 0 2.6-.8 1.1-.7 2.7-1.1 3.4-.8.8.3 1.4.1 1.4-.4s.7-1 1.5-1 1.5.1 1.5.2z"/><path d="M237 95.1c0 .3-1.4.3-3.1.1-2.4-.3-3-.1-2.4.8.6.9.3.9-1.4.1-1.1-.7-2.2-.8-2.2-.4-.6 3.5-.5 5.2.2 4.7.5-.3.9-.1.9.3 0 1.6 11.8 14.3 13.3 14.3.4 0 .7.7.7 1.5s.4 1.5 1 1.5c.5 0 2.4 1.5 4.2 3.2 1.8 1.8 4.5 3.9 6.1 4.7 1.5.8 2.7 2.1 2.7 2.8 0 .8.4 1.1 1 .8.5-.3 1.7.3 2.7 1.5 1 1.1 2.3 2 3 2 .7 0 1.3.4 1.3.8 0 1.2 7.8 5.2 10.2 5.2 1 0 1.6.4 1.3 1-.3.6.1.7.9.4 1.5-.6 2.2-3.3 1.6-5.9-.1-.6-.3-2.7-.4-4.7-.1-2-.8-4.4-1.5-5.2-1.1-1.3-1.1-1.6 0-1.6.9-.1.8-.5-.5-1.5-1.1-.8-1.7-1.5-1.3-1.5 1 0-2.3-6.3-3.7-7.2-.6-.4-.7-.8-.3-.8.4 0-.6-1.4-2.3-3-1.7-1.7-2.7-3-2.3-3 .4 0-.7-.8-2.4-1.6-1.8-.9-3-2-2.7-2.5.3-.5-.2-.9-1.1-.9-.9 0-2.3-.7-3.2-1.6-.9-.8-2.2-1.3-2.9-1-.8.3-1.4.1-1.4-.4 0-.6-.8-1-1.8-1s-2.4-.6-3.1-1.3c-1.1-1-1.2-.9-.6.3.7 1.2.6 1.3-.6.4-1.5-1.3-9.9-2.4-9.9-1.3zM223 127.7c0 .6-.9 1-2 .8-1.1-.2-2 .1-2 .7s-.3.8-.7.5c-.3-.4-1.2-.2-2 .4-.7.6-1.3.8-1.3.4s-1.7.5-3.7 2.1c-5 3.7-6.3 5-6.3 6.3 0 .5-.7 1.4-1.6 1.9-.9.5-1.5 1.2-1.5 1.5.4 2.6 0 3.7-1.1 3.1-.7-.5-.9-.2-.5.8.3.9.1 2-.5 2.6-1.2 1.2-1.8 16.1-.7 16.8.5.2.6 1.1.3 1.8-.3.8-.1 1.7.5 2 .6.4.8 1.3.4 2.1-.3.8 0 1.5.7 1.5.6 0 .9.4.6.9-.3.5.4 2.1 1.6 3.7 1.3 1.5 1.7 2.4 1 2-1.1-.7-1.1-.4 0 1.3.7 1.2 1.6 2.1 2 2.1.5 0 .8.5.8 1.1 0 1.3 10.3 11.4 13.2 13 1.6.9 1.9.8 1.3-.3-.3-.7 0-.5.8.4.8 1 2.2 1.8 3.1 1.8.9 0 1.6.4 1.6.9 0 .8 2.2 1.2 7.8 1.3 1.2 0 2.2.4 2.2 1 0 .5.5.6 1.1.2.6-.3 2.6-.8 4.4-1 1.9-.1 4.7-1 6.3-1.8 1.6-.8 3.3-1.2 3.7-.8.5.4.5.1.1-.6s-.2-1.2.6-1.2c1.7 0 8.2-6.7 9.3-9.5.5-1.1.9-2.2 1-2.5.8-1.7 1.8-5.6 1.6-5.9-.2-.2.3-.8 1.1-1.2 1-.7 1-.9 0-.9-.8 0-1-.5-.5-1.2 1.1-2 1-11-.3-13.8-.6-1.4-.9-3.1-.7-3.8.3-.6 0-1.2-.5-1.2s-1.2-1.3-1.5-2.9c-.3-1.6-1.3-3.5-2.1-4.4-.8-.8-1.2-1.7-.9-2.1.3-.3-.2-.8-1.1-1.2-.9-.3-1.6-1.1-1.6-1.6 0-1.2-9-10.2-9-9.1 0 .4-.5 0-1.1-1-.6-.9-1.4-1.5-1.8-1.2-.5.2-1.4-.2-2.1-1-.7-.8-2.1-1.5-3.2-1.5s-1.6-.4-1.2-1.1c.4-.8 0-.9-1.5-.4-1.1.3-2.1.2-2.1-.3s-1-.8-2.2-.7c-1.3.1-2.6-.3-3-.9-.5-.7-.8-.6-.8.3 0 1-.3 1.1-1.4.2-1.1-.9-1.6-.9-2.1 0-.6.8-1 .7-1.6-.2-.6-1-.9-1-.9-.2zM278.4 149.1c-.5.8-.3.9.5.4.8-.4.7.2-.3 1.7-.9 1.3-1.8 3.9-2 5.7-.2 1.7-.6 3.5-1 3.8-.3.3-.1 1.2.5 1.9.7.8.7 1.4-.1 1.9-.6.3-.7 1.2-.3 1.8 1.2 1.9 1.2 3.7.2 3.7-.6 0-.7.5-.4 1.1.9 1.3 1.7 6.3 1.9 11.5 0 2.3.4 4 .9 3.7.4-.2.8 1 .8 2.6.2 4.3.3 4.8 1.2 5.7.4.4.7 1.3.7 1.9 0 .7.8 3 1.7 5.1.9 2.2 1.7 4.1 1.6 4.4 0 .3 1.3 1.8 2.9 3.3 1.5 1.5 2.8 2.3 2.8 1.7 0-.5.5-1 1.1-1 .5 0 .7.5.3 1.2-.4.7-.3.8.4.4s1.2-1.3 1.2-2.1.6-1.8 1.3-2.2c1.8-1.1 5.7-7.7 5.7-9.7 0-1 .4-1.5.9-1.1 1 .6 2.6-8.9 2.4-14.5-.2-6.5-.8-10-1.6-10-.5 0-.6-.4-.3-.8.3-.5-.3-2.5-1.4-4.4-1-2-1.6-3.9-1.2-4.4.4-.4.1-.4-.5 0-.8.4-1.3.2-1.3-.6s-.8-2.1-1.7-3c-1-.8-2.6-2.6-3.5-3.9-1-1.3-1.8-1.9-1.8-1.5 0 .5-.9-.1-2-1.4-1.1-1.3-2-1.9-2-1.4s-.4.3-.8-.4c-1.2-1.7-5.9-2.5-6.8-1.1zM93.6 151.5c-4.1 2.1-13.9 12.8-12.9 13.9.4.3.1.6-.6.6s-.9.4-.6 1c.3.5.2 1-.4 1-.6 0-.8.6-.5 1.4.3.8 0 1.7-.5 2.1-.6.3-.9 1.1-.6 1.6.4.5.2.9-.4.9-.6 0-.8.7-.5 1.5.4.8.1 1.5-.6 1.5-.6 0-.8.5-.3 1.2 1 1.7 1.3 3.8.5 3.8-.4 0-.7 1.6-.7 3.5s.2 3.5.5 3.5c.6 0 1.1 3.3 1.4 7.7 0 1.1.4 1.9.9 1.6.4-.2.7.3.7 1.1s.7 2.2 1.6 3c.9.9 1.7 2.3 1.8 3.1.6 3.9 9.6 8.5 9.6 4.9 0-.8.5-1.2 1-.9.6.3 1-.1 1-.9 0-.9.5-1.6 1.2-1.6.6 0 .8-.3.5-.6-.3-.4 0-1.6.8-2.8.8-1.1 1.5-2.8 1.5-3.8s.5-1.8 1.1-1.8c.5 0 .7-.5.4-1-.4-.6-.2-1.6.3-2.3.5-.7.8-2.2.7-3.5-.1-1.2.2-2.2.7-2.2.4 0 .8-.5.8-1.1 0-.5-.6-.7-1.2-.3-.8.5-.7 0 .2-1.1.8-1 1.6-3.1 1.6-4.7.1-1.5.2-3 .4-3.3.5-1.3.4-9.3-.1-12.3-.4-1.9-.3-3.2.3-3.2.7 0 .6-.5-.1-1.4-.6-.7-.9-2.1-.5-3 .3-.9.1-1.6-.5-1.6s-1.1-1-1.1-2.1c0-1.9-2.4-4.8-4-4.9-.3 0-1.8.7-3.4 1.5zM184.7 196.8c-1.7.2-2.5.8-2.1 1.4.5.8.1.9-1 .5-.9-.4-2.8 0-4.1.9-1.3.9-2.9 1.3-3.5.9-.5-.3-1-.3-1 .2 0 .4-2.3 2.4-5 4.3s-5 4-5 4.7c0 .7-.8 1.7-1.7 2.2-1 .6-1.4 1.1-1 1.1.5 0-.1 1.3-1.3 3-1.2 1.6-1.8 3-1.4 3 .3 0 .1.6-.5 1.3-.6.8-.8 1.7-.4 2 .3.4.2.7-.3.7-.6 0-1 3.1-1.1 7 0 3.9.4 7 .9 7 .6 0 .8.6.5 1.4-.3.7.1 2.3.9 3.5.8 1.1 1.2 2.1.8 2.1-.4 0 0 .8.9 1.8 1 1 1.4 2.2 1 2.5-.3.4.1.7 1.1.7.9 0 1.4.4 1.1 1-.3.5-.1 1 .5 1s.8.5.4 1.2c-.4.6-.3.8.3.5.5-.3 1.6.2 2.5 1.1 2.6 2.9 5.6 5.1 6.2 4.5.3-.4.6-.1.6.6s.5.9 1 .6c.6-.3 1-.1 1 .4 0 .6.9 1.1 2 1.1s2 .5 2 1.1c0 .8.4.8 1.4 0 1-.8 1.5-.8 1.8-.1.3 1.1 15.4 2 16.4 1 .3-.3.9-.5 1.2-.6 2.2-.3 6.9-1.8 8-2.7.6-.5 1.2-.6 1.2-.1 0 .4.7-.1 1.5-1.2.8-1 1.5-1.5 1.5-1.1 0 .4.6.3 1.3-.3 3.9-3.3 6.7-6 6.3-6-.3 0 .8-1.5 2.5-3.2 1.6-1.8 2.7-3.8 2.4-4.5-.2-.7 0-1.3.5-1.3.6 0 1-.9 1-2s.4-2 .9-2 .7-1.4.6-3c-.1-1.7.2-3 .9-3 .6 0 .5-.4-.3-.9-.9-.6-1-1-.2-1.6.8-.4.9-1.1.3-1.8-.5-.7-.9-2.4-.8-4 .1-1.5-.1-2.7-.5-2.7s-1-1.2-1.4-2.7c-1-4.3-8.1-13.6-9.7-12.7-.4.3-.8-.3-.8-1.2 0-1-.3-1.5-.6-1.1-.3.3-1.5-.3-2.7-1.3-1.1-1.1-2.4-1.7-2.9-1.4-.4.3-.8 0-.8-.6s-.4-.9-.9-.5c-.5.3-1.3 0-1.6-.6-.4-.5-1.3-.8-2-.5-.7.2-1.6.2-1.9-.2-1.2-1.2-11.3-2-16.9-1.4zM268.5 209.8c-3.1.6-8.8 3.4-10.9 5.4-1 .9-2.3 1.5-2.8 1.2-.4-.3-.8-.1-.8.4s-2.4 3.4-5.4 6.3c-3 2.9-5.3 5.6-5 6 .2.4-.3.9-1.1 1.3-.8.3-1.5 1.1-1.5 1.9 0 .7-.8 2.2-1.7 3.3-2.8 3.1-4.4 6.4-3.8 7.4.4.6.2 1-.3 1-.9 0-2.8 6.5-2.4 8.2.1.5-.2.8-.7.8-.5 0-.8 3.1-.8 7s.4 7 .9 7 .7.4.4.8c-.2.4.8 2.2 2.4 4.1 2.4 2.7 3.7 3.3 7.7 3.6 2.6.2 5.3-.1 6-.6.7-.7 1.4-.6 1.8.1.5.8 1.3.6 2.6-.6 1.4-1.3 1.9-1.4 1.9-.4 0 1.1.3 1.1 1.2.2.7-.7 2-1.2 2.9-1.2 1 0 1.9-.5 2.1-1 .2-.6 1.3-1.2 2.5-1.3 1.2 0 1.9-.5 1.7-.9-.3-.4.2-.8 1-.8s2-.8 2.5-1.8c.6-.9 1.1-1.4 1.1-.9 0 1.1 9-7.9 9-9 0-.6.7-1.6 1.5-2.3.8-.7 1.2-1.6 1-2.1-.3-.4.3-1.2 1.2-1.8 1-.6 1.5-1.1 1.1-1.1-.4 0 0-1.6.8-3.5s1.1-3.5.7-3.5c-.4 0-.2-.5.4-1.1.6-.6.9-1.8.6-2.5-.3-.8.1-1.4.8-1.4 1.1 0 1.1-.3-.1-1-1.3-.9-1.3-1.1 0-2 1.2-.8 1.2-1 .1-1-1 0-1.1-.3-.2-1.4.9-1.1.9-1.5-.1-2s-1-.7 0-1.2c.6-.3.9-1.1.5-1.7-.7-1.2-1-2.2-1.7-6.2-.6-3.4-3.2-8.6-3.9-7.8-.4.3-.7-.1-.7-.9 0-.9-.8-1.8-1.7-2.2-1-.3-2.4-.9-3.2-1.2-1-.5-1.1-.3-.5.7.6 1.1.5 1.2-.7.3-1.4-1.2-2.9-1.3-6.4-.6zM108.6 213.8c-.3.5-1.5.8-2.8.7-1.3-.1-2.5.1-2.8.4-.3.4-1.7 1.4-3.2 2.4-1.6 1-2.8 2.6-2.8 3.7 0 1-.5 2.2-1 2.5-.7.4-.7 1.2 0 2.5.6 1.1.6 2.1.1 2.4-1.3.8-1 9.8.3 11.5.9 1.2.8 1.3-.4.6-1.3-.8-1.3-.6-.2.8.8.9 1.1 2.1.7 2.7-.3.5-.2 1 .4 1 .6 0 .8.7.5 1.5-.4.9.1 1.8 1.1 2.1 1.3.5 1.4.9.3 1.5-.8.5-.9.9-.2.9.6 0 1.7 1.4 2.4 3s1.7 3 2.3 3c.6 0 .8.3.5.6-.8.7 8.1 10 9.3 9.6.5-.1.9.2.9.8 0 .5.7 1 1.5 1s1.5.3 1.5.8c0 .7 5 3.2 7.3 3.6.6.1 1.8.5 2.6 1 .7.5 4.3.9 7.9 1 6 .2 6.8 0 9.6-2.8 1.7-1.7 3-3.4 2.8-3.8-.1-.4.2-.8.7-.8.5 0 .8-1.1.6-2.5-.1-1.4.3-2.5.8-2.5.7 0 .7-.4-.1-1.2-.8-.8-.9-1.5-.1-2.5.9-1 .8-1.3-.2-1.3-1.1 0-1.1-.2.1-1 1.2-.8 1.2-1-.3-1.6-1.3-.5-1.5-1-.7-1.9.8-.9.8-1.5 0-2-.5-.3-1-1.5-1-2.6 0-1.3-.4-1.8-1.2-1.3-.7.4-.8.3-.4-.4.7-1.2-2-7-3.9-8.4-.5-.4-.6-.8-.2-.8.5 0 .2-.6-.5-1.4-.7-.8-2.3-2.7-3.5-4.3-3.5-4.5-8-9.1-10.3-10.3-1.1-.6-1.7-1.6-1.4-2.2.4-.6.3-.8-.4-.4-.6.3-1.3.2-1.7-.4-.4-.6-1.1-.8-1.6-.5-.5.4-.9.3-.9-.2 0-.9-4.6-3.1-7.5-3.5-1.1-.2-2.5-.7-3.2-1.1-.6-.4-1.4-.3-1.7.1zM180 274.8c0 .7-.4 1.1-.9.8-.5-.4-1.2 0-1.4.6-.4 1-.6.9-.6-.1-.1-1.1-.4-1.1-1.6-.1-.8.7-1.5 1-1.5.6 0-.3-1.6 0-3.5.8s-3.5 1.3-3.5 1c0-.2-1.3.2-3 1.1-1.6.9-3 2-3 2.5 0 .6-.6 1-1.3 1-.7 0-2.1 1.3-3 3-1.1 1.8-1.4 3-.7 3 .6 0 .9.4.6.8-.6 1 6.8 9.2 8.3 9.2.6 0 1.1.4 1.1.8 0 1 7.7 5.2 9.6 5.2.8 0 1.4.4 1.4.8s1 .9 2.3 1c2.5.3 6.2 1 6.2 1.2 0 .1 1 .3 2.3.4 1.2.2 2.2-.2 2.2-.8 0-.6.4-.5.9.3.8 1.2 1.2 1.2 2.5.2 1.3-1.1 1.6-1.1 1.6 0 0 .9.3 1 .8.4.4-.6 2.1-1.2 3.7-1.4 1.7-.1 3.3-.8 3.7-1.5.4-.6.8-.8.8-.3 0 1 7.3-2.1 8.2-3.6.4-.7.8-.9.8-.5 0 .5.9 0 1.9-1 6.1-5.6 7.5-6.7 8.5-6.4.6.2.8 0 .4-.4s.1-1.9 1.2-3.5c1.5-2 1.7-2.9.8-3.2-1-.4-.9-.6.1-.6 1-.1.7-.7-.7-2-1.2-1-1.9-2.1-1.5-2.5.3-.3-.1-.6-1-.6s-1.7-.5-1.7-1.1c0-.5-.4-.8-.9-.4-.5.3-1.7-.2-2.5-1.1-.9-.9-1.6-1.1-1.6-.4 0 .7-.6.5-1.5-.4-.9-.8-2.2-1.3-2.9-1-.8.3-1.7.1-2-.4-.3-.6-1.6-.8-2.8-.4-1.3.3-1.9.1-1.5-.5.3-.5 0-1-.8-1s-1.5.5-1.5 1.1c0 .6-.5.4-1-.4-.7-1.1-1-1.1-1-.2 0 .9-.5 1-1.7.3-2-1-12.8-.9-13.9.2-.4.4-1.3.2-2.1-.4-1-.9-1.3-.8-1.3.2 0 1.1-.2 1.1-1-.1-.7-1.1-1-1.1-1-.2z"/></svg>