<svg version="1.1" xmlns="http://www.w3.org/2000/svg" xmlns:xlink="http://www.w3.org/1999/xlink" x="0px" y="0px"
	 width="547.8px" height="78.5px" viewBox="0 0 547.8 78.5" enable-background="new 0 0 547.8 78.5" xml:space="preserve">
<path fill="#FFFFFF" d="M96.1,3.2v38.3c0,4.3-0.9,8.1-2.8,11.3c-1.9,3.2-4.5,5.6-8,7.3c-3.5,1.7-7.6,2.5-12.3,2.5
	c-7.1,0-12.8-1.9-16.9-5.6c-4.1-3.7-6.2-8.8-6.3-15.2V3.2h14.2v38.9c0.2,6.4,3.1,9.6,8.9,9.6c2.9,0,5.1-0.8,6.6-2.4
	c1.5-1.6,2.3-4.2,2.3-7.8V3.2H96.1z M146,40.4c0,6.8-1.5,12.2-4.6,16.2c-3,4-7.2,6.1-12.3,6.1c-4,0-7.3-1.5-9.9-4.4v20.3h-13.6V18.3
	h12.7l0.4,4c2.6-3.2,6-4.8,10.3-4.8c5.4,0,9.5,2,12.5,5.9s4.5,9.4,4.5,16.3V40.4z M132.4,39.5c0-7.7-2.3-11.6-6.8-11.6
	c-3.2,0-5.4,1.2-6.4,3.5v17.1c1.2,2.4,3.4,3.6,6.5,3.6c4.3,0,6.5-3.7,6.7-11.2V39.5z M169,7.4v10.8h7.2v9.4H169v19.9
	c0,1.6,0.3,2.8,0.9,3.4c0.6,0.6,1.8,1,3.5,1c1.3,0,2.5-0.1,3.4-0.2v9.7c-2.4,0.8-5,1.2-7.6,1.2c-4.7,0-8.1-1.1-10.3-3.3
	c-2.2-2.2-3.3-5.5-3.3-10V27.7h-5.6v-9.4h5.6V7.4H169z M182.6,7c0-1.9,0.7-3.5,2.1-4.8c1.4-1.2,3.2-1.9,5.4-1.9c2.2,0,4,0.6,5.4,1.9
	c1.4,1.2,2.1,2.8,2.1,4.8c0,1.9-0.7,3.5-2.1,4.8c-1.4,1.2-3.2,1.9-5.4,1.9c-2.2,0-4-0.6-5.4-1.9C183.3,10.5,182.6,8.9,182.6,7z
	 M197,61.8h-13.6V18.3H197V61.8z M219.4,18.3l0.4,5.1c3.1-3.9,7.2-5.9,12.4-5.9c5.5,0,9.2,2.2,11.1,6.6c3-4.4,7.2-6.6,12.8-6.6
	c8.8,0,13.4,5.3,13.6,16v28.3h-13.6V34.3c0-2.2-0.4-3.8-1.1-4.9c-0.8-1-2.1-1.5-4.1-1.5c-2.7,0-4.7,1.2-6,3.6l0,0.6v29.7h-13.6V34.4
	c0-2.3-0.4-3.9-1.1-4.9c-0.7-1-2.1-1.5-4.1-1.5c-2.6,0-4.6,1.2-6,3.6v30.3h-13.6V18.3H219.4z M300.7,62.6c-6.7,0-12.1-2-16.2-6
	c-4.1-4-6.2-9.2-6.2-15.6V40c0-4.5,0.8-8.4,2.5-11.8c1.6-3.4,4.1-6,7.2-7.9c3.2-1.9,6.9-2.8,11.3-2.8c6.1,0,10.9,1.9,14.5,5.7
	c3.5,3.8,5.3,9.1,5.3,15.9v5.3h-27c0.5,2.4,1.5,4.4,3.2,5.8c1.6,1.4,3.8,2.1,6.4,2.1c4.3,0,7.6-1.5,10.1-4.5l6.2,7.3
	c-1.7,2.3-4.1,4.2-7.2,5.6C307.6,61.9,304.3,62.6,300.7,62.6z M299.2,27.9c-4,0-6.3,2.6-7.1,7.9h13.7v-1c0.1-2.2-0.5-3.9-1.7-5
	C303,28.5,301.3,27.9,299.2,27.9z M349,41.1h-7.6v20.7h-14.1V3.2h23.1c6.9,0,12.4,1.5,16.3,4.6c3.9,3.1,5.9,7.4,5.9,13.1
	c0,4.1-0.8,7.4-2.5,10.1s-4.2,4.9-7.7,6.5l12.2,23.7v0.6h-15.1L349,41.1z M341.3,30.2h8.9c2.7,0,4.7-0.7,6.1-2.1s2-3.4,2-5.9
	s-0.7-4.5-2.1-5.9c-1.4-1.4-3.4-2.2-6-2.2h-8.9V30.2z M379.8,39.6c0-4.3,0.8-8.2,2.5-11.6c1.7-3.4,4.1-6,7.3-7.8
	c3.2-1.8,6.9-2.7,11.1-2.7c6.5,0,11.7,2,15.4,6.1c3.8,4,5.6,9.5,5.6,16.5v0.5c0,6.8-1.9,12.2-5.7,16.2c-3.8,4-8.9,6-15.3,6
	c-6.2,0-11.2-1.9-14.9-5.6c-3.8-3.7-5.8-8.8-6.1-15.1L379.8,39.6z M393.4,40.5c0,4,0.6,7,1.9,8.9c1.3,1.9,3.1,2.8,5.6,2.8
	c4.8,0,7.3-3.7,7.4-11.1v-1.4c0-7.8-2.5-11.7-7.5-11.7c-4.5,0-7,3.4-7.4,10.1L393.4,40.5z M469.5,40.4c0,7.1-1.5,12.6-4.4,16.5
	c-3,3.8-7.1,5.8-12.5,5.8c-4.4,0-8-1.8-10.7-5.3l-0.6,4.5h-12.2V0h13.6v21.8c2.5-2.9,5.8-4.3,9.8-4.3c5.4,0,9.6,1.9,12.6,5.8
	c3,3.9,4.4,9.4,4.4,16.4V40.4z M455.9,39.5c0-4.2-0.6-7.2-1.7-8.9c-1.1-1.8-2.8-2.7-5.1-2.7c-3.1,0-5.2,1.2-6.4,3.5v17.3
	c1.2,2.3,3.3,3.5,6.4,3.5c3.2,0,5.2-1.6,6.1-4.7C455.7,46,455.9,43.3,455.9,39.5z M475,39.6c0-4.3,0.8-8.2,2.5-11.6
	c1.7-3.4,4.1-6,7.3-7.8c3.2-1.8,6.9-2.7,11.1-2.7c6.5,0,11.7,2,15.4,6.1c3.8,4,5.6,9.5,5.6,16.5v0.5c0,6.8-1.9,12.2-5.7,16.2
	c-3.8,4-8.9,6-15.3,6c-6.2,0-11.2-1.9-14.9-5.6c-3.8-3.7-5.8-8.8-6.1-15.1L475,39.6z M488.5,40.5c0,4,0.6,7,1.9,8.9
	c1.3,1.9,3.1,2.8,5.6,2.8c4.8,0,7.3-3.7,7.4-11.1v-1.4c0-7.8-2.5-11.7-7.5-11.7c-4.5,0-7,3.4-7.4,10.1L488.5,40.5z M540,7.4v10.8
	h7.2v9.4H540v19.9c0,1.6,0.3,2.8,0.9,3.4s1.8,1,3.5,1c1.3,0,2.5-0.1,3.4-0.2v9.7c-2.4,0.8-5,1.2-7.6,1.2c-4.7,0-8.1-1.1-10.3-3.3
	c-2.2-2.2-3.3-5.5-3.3-10V27.7h-5.6v-9.4h5.6V7.4H540z"/>
<circle fill="#3BD771" cx="14.7" cy="46.9" r="14.7"/>
</svg>
